
<svg xmlns="http://www.w3.org/2000/svg" xmlns:xlink="http://www.w3.org/1999/xlink" contentStyleType="text/css" data-diagram-type="DESCRIPTION" height="639px" preserveAspectRatio="none" style="width:716px;height:639px;background:#FFFFFF;" version="1.1" viewBox="0 0 716 639" width="716px" zoomAndPan="magnify"><defs/><g><!--cluster qs--><g class="cluster" data-entity="qs" data-source-line="9" data-uid="ent0008" id="cluster_qs"><polygon fill="none" points="16,260.59,26,250.59,528,250.59,528,612.48,518,622.48,16,622.48,16,260.59" style="stroke:#181818;stroke-width:1;"/><line style="stroke:#181818;stroke-width:1;" x1="518" x2="528" y1="260.59" y2="250.59"/><line style="stroke:#181818;stroke-width:1;" x1="16" x2="518" y1="260.59" y2="260.59"/><line style="stroke:#181818;stroke-width:1;" x1="518" x2="518" y1="260.59" y2="622.48"/><text fill="#000000" font-family="sans-serif" font-size="14" font-weight="bold" lengthAdjust="spacing" textLength="95.5664" x="220.2168" y="276.5851">QGIS Server</text></g><!--cluster pi--><g class="cluster" data-entity="pi" data-source-line="12" data-uid="ent0011" id="cluster_pi"><path d="M50.5,391.89 L122.4434,391.89 A3.75,3.75 0 0 1 124.9434,394.39 L131.9434,414.1869 L493.5,414.1869 A2.5,2.5 0 0 1 496,416.6869 L496,502.68 A2.5,2.5 0 0 1 493.5,505.18 L50.5,505.18 A2.5,2.5 0 0 1 48,502.68 L48,394.39 A2.5,2.5 0 0 1 50.5,391.89" fill="none" style="stroke:#000000;stroke-width:1.5;"/><line style="stroke:#000000;stroke-width:1.5;" x1="48" x2="131.9434" y1="414.1869" y2="414.1869"/><text fill="#000000" font-family="sans-serif" font-size="14" font-weight="bold" lengthAdjust="spacing" textLength="70.9434" x="52" y="406.8851">Plugin(s)</text></g><!--entity ig--><g class="entity" data-entity="ig" data-source-line="10" data-uid="ent0009" id="entity_ig"><rect fill="#F1F1F1" height="46.2969" rx="2.5" ry="2.5" style="stroke:#181818;stroke-width:0.5;" width="90.8457" x="421.58" y="290.59"/><rect fill="#F1F1F1" height="10" style="stroke:#181818;stroke-width:0.5;" width="15" x="492.4257" y="295.59"/><rect fill="#F1F1F1" height="2" style="stroke:#181818;stroke-width:0.5;" width="4" x="490.4257" y="297.59"/><rect fill="#F1F1F1" height="2" style="stroke:#181818;stroke-width:0.5;" width="4" x="490.4257" y="301.59"/><text fill="#000000" font-family="sans-serif" font-size="14" lengthAdjust="spacing" textLength="50.8457" x="436.58" y="323.5851">Ingress</text></g><!--entity core--><g class="entity" data-entity="core" data-source-line="11" data-uid="ent0010" id="entity_core"><rect fill="#F1F1F1" height="46.2969" rx="2.5" ry="2.5" style="stroke:#181818;stroke-width:0.5;" width="72.4229" x="439.79" y="560.18"/><rect fill="#F1F1F1" height="10" style="stroke:#181818;stroke-width:0.5;" width="15" x="492.2129" y="565.18"/><rect fill="#F1F1F1" height="2" style="stroke:#181818;stroke-width:0.5;" width="4" x="490.2129" y="567.18"/><rect fill="#F1F1F1" height="2" style="stroke:#181818;stroke-width:0.5;" width="4" x="490.2129" y="571.18"/><text fill="#000000" font-family="sans-serif" font-size="14" lengthAdjust="spacing" textLength="32.4229" x="454.79" y="593.1751">Kern</text></g><!--entity am--><g class="entity" data-entity="am" data-source-line="13" data-uid="ent0012" id="entity_am"><rect fill="#F1F1F1" height="46.2969" rx="2.5" ry="2.5" style="stroke:#181818;stroke-width:0.5;" width="185.4482" x="72.28" y="434.89"/><rect fill="#F1F1F1" height="10" style="stroke:#181818;stroke-width:0.5;" width="15" x="237.7282" y="439.89"/><rect fill="#F1F1F1" height="2" style="stroke:#181818;stroke-width:0.5;" width="4" x="235.7282" y="441.89"/><rect fill="#F1F1F1" height="2" style="stroke:#181818;stroke-width:0.5;" width="4" x="235.7282" y="445.89"/><text fill="#000000" font-family="sans-serif" font-size="14" lengthAdjust="spacing" textLength="145.4482" x="87.28" y="467.8851">Access-Management</text></g><!--entity fi--><g class="entity" data-entity="fi" data-source-line="14" data-uid="ent0013" id="entity_fi"><rect fill="#F1F1F1" height="46.2969" rx="2.5" ry="2.5" style="stroke:#181818;stroke-width:0.5;" width="159.9229" x="293.04" y="434.89"/><rect fill="#F1F1F1" height="10" style="stroke:#181818;stroke-width:0.5;" width="15" x="432.9629" y="439.89"/><rect fill="#F1F1F1" height="2" style="stroke:#181818;stroke-width:0.5;" width="4" x="430.9629" y="441.89"/><rect fill="#F1F1F1" height="2" style="stroke:#181818;stroke-width:0.5;" width="4" x="430.9629" y="445.89"/><text fill="#000000" font-family="sans-serif" font-size="14" lengthAdjust="spacing" textLength="119.9229" x="308.04" y="467.8851">QWC-Featureinfo</text></g><!--entity qwc--><g class="entity" data-entity="qwc" data-source-line="1" data-uid="ent0002" id="entity_qwc"><polygon fill="#F1F1F1" points="275.84,16,285.84,6,392.1632,6,392.1632,58.5938,382.1632,68.5938,275.84,68.5938,275.84,16" style="stroke:#181818;stroke-width:0.5;"/><line style="stroke:#181818;stroke-width:0.5;" x1="382.1632" x2="392.1632" y1="16" y2="6"/><line style="stroke:#181818;stroke-width:0.5;" x1="275.84" x2="382.1632" y1="16" y2="16"/><line style="stroke:#181818;stroke-width:0.5;" x1="382.1632" x2="382.1632" y1="16" y2="68.5938"/><text fill="#000000" font-family="sans-serif" font-size="14" lengthAdjust="spacing" textLength="34.8838" x="290.84" y="38.9951">QGIS</text><text fill="#000000" font-family="sans-serif" font-size="14" lengthAdjust="spacing" textLength="76.3232" x="290.84" y="55.292">Web Client</text></g><!--entity qd--><g class="entity" data-entity="qd" data-source-line="2" data-uid="ent0003" id="entity_qd"><polygon fill="#F1F1F1" points="534.46,24.14,544.46,14.14,671.5303,14.14,671.5303,50.4369,661.5303,60.4369,534.46,60.4369,534.46,24.14" style="stroke:#181818;stroke-width:0.5;"/><line style="stroke:#181818;stroke-width:0.5;" x1="661.5303" x2="671.5303" y1="24.14" y2="14.14"/><line style="stroke:#181818;stroke-width:0.5;" x1="534.46" x2="661.5303" y1="24.14" y2="24.14"/><line style="stroke:#181818;stroke-width:0.5;" x1="661.5303" x2="661.5303" y1="24.14" y2="60.4369"/><text fill="#000000" font-family="sans-serif" font-size="14" lengthAdjust="spacing" textLength="97.0703" x="549.46" y="47.1351">QGIS Desktop</text></g><!--entity itxt--><g class="entity" data-entity="itxt" data-source-line="4" data-uid="ent0004" id="entity_itxt"><ellipse cx="537" cy="174.59" fill="#F1F1F1" rx="8" ry="8" style="stroke:#181818;stroke-width:0.5;"/><text fill="#000000" font-family="sans-serif" font-size="14" lengthAdjust="spacing" textLength="83.3438" x="495.3281" y="204.5851">FI text/plain</text></g><!--entity iqwc--><g class="entity" data-entity="iqwc" data-source-line="5" data-uid="ent0005" id="entity_iqwc"><ellipse cx="271" cy="174.59" fill="#F1F1F1" rx="8" ry="8" style="stroke:#181818;stroke-width:0.5;"/><text fill="#000000" font-family="sans-serif" font-size="14" lengthAdjust="spacing" textLength="51.2695" x="245.3652" y="204.5851">FI QWC</text></g><!--entity acapa--><g class="entity" data-entity="acapa" data-source-line="6" data-uid="ent0006" id="entity_acapa"><ellipse cx="396" cy="174.59" fill="#F1F1F1" rx="8" ry="8" style="stroke:#181818;stroke-width:0.5;"/><text fill="#000000" font-family="sans-serif" font-size="14" lengthAdjust="spacing" textLength="98.8613" x="346.5693" y="204.5851">Capa allnodes</text></g><!--entity ncapa--><g class="entity" data-entity="ncapa" data-source-line="7" data-uid="ent0007" id="entity_ncapa"><ellipse cx="669" cy="174.59" fill="#F1F1F1" rx="8" ry="8" style="stroke:#181818;stroke-width:0.5;"/><text fill="#000000" font-family="sans-serif" font-size="14" lengthAdjust="spacing" textLength="81.6621" x="628.1689" y="204.5851">Capabilities</text></g><!--link ig to pi--><g class="link" data-entity-1="ig" data-entity-2="pi" data-source-line="16" data-uid="lnk14" id="link_ig_pi"><path d="M470.33,337.29 C471.7875,347.1625 473.5975,359.4281 475.4983,372.3111 C476.4487,378.7526 477.4218,407.6453 478.3848,414.1735" fill="none" id="ig-pi" style="stroke:#181818;stroke-width:1;"/></g><!--link pi to core--><g class="link" data-entity-1="pi" data-entity-2="core" data-source-line="17" data-uid="lnk15" id="link_pi_core"><path d="M483.4999,505.2497 C483.2405,507.9128 482.9772,510.6171 482.712,513.3407 C482.1815,518.788 481.6435,524.3128 481.1148,529.7419 C480.0575,540.6 479.0375,551.075 478.19,559.78" fill="none" id="pi-core" style="stroke:#181818;stroke-width:1;"/></g><!--link ncapa to ig--><g class="link" data-entity-1="ncapa" data-entity-2="ig" data-source-line="20" data-uid="lnk16" id="link_ncapa_ig"><path d="M660.06,181.66 C632.5,200.37 547.82,257.86 500.28,290.14" fill="none" id="ncapa-ig" style="stroke:#181818;stroke-width:1;"/></g><!--link acapa to ig--><g class="link" data-entity-1="acapa" data-entity-2="ig" data-source-line="21" data-uid="lnk17" id="link_acapa_ig"><path d="M400.02,183.36 C410.52,203.64 439.08,258.82 455.32,290.17" fill="none" id="acapa-ig" style="stroke:#181818;stroke-width:1;"/></g><!--link iqwc to ig--><g class="link" data-entity-1="iqwc" data-entity-2="ig" data-source-line="22" data-uid="lnk18" id="link_iqwc_ig"><path d="M279.93,181.84 C306.97,200.76 388.88,258.07 434.84,290.23" fill="none" id="iqwc-ig" style="stroke:#181818;stroke-width:1;"/></g><!--link itxt to ig--><g class="link" data-entity-1="itxt" data-entity-2="ig" data-source-line="23" data-uid="lnk19" id="link_itxt_ig"><path d="M533.04,183.36 C522.68,203.64 494.52,258.82 478.52,290.17" fill="none" id="itxt-ig" style="stroke:#181818;stroke-width:1;"/></g><!--link qwc to acapa--><g class="link" data-entity-1="qwc" data-entity-2="acapa" data-source-line="25" data-uid="lnk20" id="link_qwc_acapa"><path d="M348.07,68.99 C362.5,100.49 384,147.41 392.43,165.8" fill="none" id="qwc-acapa" style="stroke:#181818;stroke-width:1;"/><text fill="#000000" font-family="sans-serif" font-size="13" lengthAdjust="spacing" textLength="8.9185" x="369.71" y="111.6569">B</text></g><!--link qwc to iqwc--><g class="link" data-entity-1="qwc" data-entity-2="iqwc" data-source-line="26" data-uid="lnk21" id="link_qwc_iqwc"><path d="M319.7,68.99 C305.04,100.49 283.19,147.41 274.63,165.8" fill="none" id="qwc-iqwc" style="stroke:#181818;stroke-width:1;"/><text fill="#000000" font-family="sans-serif" font-size="13" lengthAdjust="spacing" textLength="8.8931" x="305.39" y="111.6569">A</text></g><!--link qd to ncapa--><g class="link" data-entity-1="qd" data-entity-2="ncapa" data-source-line="28" data-uid="lnk22" id="link_qd_ncapa"><path d="M614.05,60.94 C629.09,91.78 655.28,145.46 665.12,165.63" fill="none" id="qd-ncapa" style="stroke:#181818;stroke-width:1;"/><text fill="#000000" font-family="sans-serif" font-size="13" lengthAdjust="spacing" textLength="10.0103" x="640.95" y="111.6569">D</text></g><!--link qd to itxt--><g class="link" data-entity-1="qd" data-entity-2="itxt" data-source-line="29" data-uid="lnk23" id="link_qd_itxt"><path d="M591.95,60.94 C576.91,91.78 550.72,145.46 540.88,165.63" fill="none" id="qd-itxt" style="stroke:#181818;stroke-width:1;"/><text fill="#000000" font-family="sans-serif" font-size="13" lengthAdjust="spacing" textLength="9.0771" x="572.98" y="111.6569">C</text></g><!--SRC=[NP0zRuD038PtVeN5r0weErjAb0f5bHfboDB5EGooSXXwNDf8LVvxVGTKXE4adz_7hp-agmZImrjv_9GJdQ6mJE9Jm06-VamY_p9iQRZuhX-bAabOFBaQZUgx4ZpT_4jlaIK2x6z-HHnEnIW5tuLKO8-0rePMGoJGQ6gDdDcovucGI2odEvBx9ZSEDy1l0c2wjkz4bu6qbCRHC9PoywZjoOqZcywHIZsQ2pPg-s6l3SlJy1pLdgFfG-d667NDtb6qe9tFXksQqysp7Q6_EcAfkqZLhDHT7pUGPMeVMdC8unntNIxi618wCIxYSByvr2jFOJ9bHpA7rpaHyHmsIbJXBnEmdVxH8uVY3m00]--></g></svg>